<?xml version="1.0" encoding="utf-8"?>
<!-- Generator: Adobe Illustrator 21.1.0, SVG Export Plug-In . SVG Version: 6.00 Build 0)  -->
<svg version="1.1" id="Layer_1" xmlns="http://www.w3.org/2000/svg" xmlns:xlink="http://www.w3.org/1999/xlink" x="0px" y="0px"
	 viewBox="0 0 83 32" style="enable-background:new 0 0 83 32;" xml:space="preserve">
<style type="text/css">
	.st0{fill:#4E1818;}
	.st1{fill:#F99E1E;}
</style>
<g>
	<g>
		<path class="st0" d="M38.7,0.7H11.8c-3.2,0-6,2.1-6.8,5.2L4.9,6.3c0,0,0,0.1,0,0.1L0.6,25.7c-0.1,0.3-0.1,0.7-0.1,1
			c0,2.5,2.1,4.6,4.6,4.6H32c0,0,0.1,0,0.1,0l0.1,0c4.2,0,6.4-3.4,7.1-6.6l4-18.4c0.1-0.3,0.1-0.7,0.1-1C43.3,2.7,41.4,0.7,38.7,0.7
			z"/>
		<path class="st1" d="M38.2,24.6l4-18.4c0.1-0.3,0.1-0.5,0.1-0.8c0-2-1.4-3.7-3.7-3.7H11.8c-2.9,0-5.4,2-6,4.8l0,0l0,0.1
			c0,0,0,0.1,0,0.1L1.5,25.9c-0.1,0.3-0.1,0.5-0.1,0.8c0,2,1.6,3.7,3.7,3.7l26.8,0c0,0,0,0,0.1,0c0,0,0,0,0.1,0h0l0,0
			C35.6,30.4,37.6,27.5,38.2,24.6z"/>
	</g>
	<path class="st0" d="M11.8,7.3c1.1,0,1.2,0,1.9,0c0.1,0.2,3.2,9.8,3.2,9.8s1.8-8.6,1.9-9.1c0.1-0.5,0.2-0.6,0.9-0.6
		c0.7,0,2.9,0,2.9,0L19,24.7c0,0-1.5,0-2.1,0c-0.6,0-0.8-0.2-1.1-0.9c-0.2-0.5-3.1-9.2-3.1-9.2s-1.7,8.2-1.9,9.1
		c-0.2,0.9-0.6,1-1.4,1c-0.7,0-2.6,0-2.6,0s3.2-15.6,3.4-16.3S10.6,7.3,11.8,7.3z"/>
	<path class="st0" d="M21.3,24.7c0,0,6.7-15.7,7.1-16.5c0.4-0.9,0.8-0.9,2.5-0.9c0.9,0,2.8,0,3.2,0c0,0.3,0.4,17.5,0.4,17.5
		s-1.5,0-2.3,0c-0.8,0-1.3-0.3-1.4-1.3c-0.1-1.3-0.1-3.1-0.1-3.1h-3.8c0,0-1.1,2.6-1.4,3.3c-0.3,0.8-0.5,1.1-1.8,1.1
		C22.5,24.7,21.3,24.7,21.3,24.7z"/>
	<polygon class="st1" points="30.7,17.4 28.1,17.4 30.6,11.6 	"/>
	<path class="st0" d="M48.3,7.3c0.5,0,5.9,0,7.1,0c-0.1,0.7-2.8,13.3-3,14.1c-0.5,2.4-3,3.4-5.3,3.4c-2,0-5.1-0.9-4.1-5
		c0.1-0.4,0.3-0.8,1.1-0.9c0.6,0,2,0,2.6,0c-0.1,0.5-0.2,0.8-0.2,1.2c-0.1,0.7-0.1,1.4,0.8,1.4c1.5,0,1.6-1.8,1.8-3
		c0.2-0.8,1.6-7.6,1.7-8c-0.4,0-3.8,0-4.1,0c0.1-0.6,0.4-2.1,0.6-2.5C47.4,7.4,47.7,7.3,48.3,7.3z"/>
	<path class="st0" d="M59.9,7.3c0.6,0,8,0,8.8,0c-0.1,0.4-0.5,2.2-0.5,2.5c-0.1,0.6-0.6,0.8-1.3,0.8s-4.5,0-4.5,0l-0.7,3.3h4.7
		c0,0-0.5,2-0.6,2.5c-0.1,0.4-0.4,0.8-1.1,0.8c-0.6,0-3.8,0-3.8,0L60,21.4l5.6,0c0,0-0.5,2.3-0.6,2.6c-0.1,0.6-0.5,0.7-1,0.7
		c-0.5,0-8.7,0-9.1,0c0.1-0.6,0.1-0.3,0.2-1c0.1-0.6,3.1-14.5,3.3-15.3C58.6,7.6,59.1,7.3,59.9,7.3z"/>
	<path class="st0" d="M71.2,7.3c0.5,0,10.9,0,10.9,0s-0.4,1.8-0.5,2.4c-0.1,0.6-0.5,0.9-1.1,0.9c-0.5,0-3,0-3,0S74.8,23,74.7,23.5
		c-0.1,0.5-0.3,1.2-1.2,1.2s-3.1,0-3.1,0l3-14.2c0,0-3.4,0-3.7,0c0.1-0.5,0.4-1.9,0.5-2.5C70.3,7.3,70.8,7.3,71.2,7.3z"/>
</g>
</svg>
